REM DIRINDEX 1\8,1\2\11,1\3\12,1\3\14,1\5\15,1\5\16,1\6\17,1\6\18,1\4\19,1\4\20,1\4\21,1\4\22,1\7\23,1\7\24,1\7\25,1\2\9\26,1\2\9\27,1\2\10\28,1\2\10\29,1\2\10\30,1\2\10\31,1\2\10\32,1\3\13\33,1\3\13\34,1\3\13\35
REM DIRNAME folder01,folder02,folder03,folder04,folder05,folder06,folder07,folder08,folder09,folder10,folder11,folder12,folder13,folder14,folder15,folder16,folder17,folder18,folder19,folder20,folder21,folder22,folder23,folder24,folder25,folder26,folder27,folder28,folder29,folder30,folder31,folder32,folder33,folder34,folder35
TITLE ""
FILE "157 157_例文UNIT6_SET5.mp3" MP3
  TRACK 01 AUDIO
    TITLE "22:cjc123_4199"
    INDEX 01 00:00:00
  TRACK 02 AUDIO
    TITLE "0:"
    INDEX 01 00:02:65
  TRACK 03 AUDIO
    TITLE "19:cjc123_4200"
    INDEX 01 00:03:37
  TRACK 04 AUDIO
    TITLE "0:"
    INDEX 01 00:08:19
  TRACK 05 AUDIO
    TITLE "20:cjc123_4201"
    INDEX 01 00:08:52
  TRACK 06 AUDIO
    TITLE "0:"
    INDEX 01 00:13:02
  TRACK 07 AUDIO
    TITLE "21:cjc123_4202"
    INDEX 01 00:13:28
  TRACK 08 AUDIO
    TITLE "0:"
    INDEX 01 00:18:11
  TRACK 09 AUDIO
    TITLE "19:cjc123_4203"
    INDEX 01 00:18:60
  TRACK 10 AUDIO
    TITLE "0:"
    INDEX 01 00:22:64
  TRACK 11 AUDIO
    TITLE "20:cjc123_4204"
    INDEX 01 00:23:22
  TRACK 12 AUDIO
    TITLE "0:"
    INDEX 01 00:28:21
  TRACK 13 AUDIO
    TITLE "21:cjc123_4205"
    INDEX 01 00:28:47
  TRACK 14 AUDIO
    TITLE "0:"
    INDEX 01 00:32:52
  TRACK 15 AUDIO
    TITLE "19:cjc123_4206"
    INDEX 01 00:33:24
  TRACK 16 AUDIO
    TITLE "0:"
    INDEX 01 00:38:55
  TRACK 17 AUDIO
    TITLE "20:cjc123_4207"
    INDEX 01 00:39:15
  TRACK 18 AUDIO
    TITLE "0:"
    INDEX 01 00:45:08
  TRACK 19 AUDIO
    TITLE "21:cjc123_4208"
    INDEX 01 00:45:33
  TRACK 20 AUDIO
    TITLE "0:"
    INDEX 01 00:50:64
  TRACK 21 AUDIO
    TITLE "19:cjc123_4209"
    INDEX 01 00:51:40
  TRACK 22 AUDIO
    TITLE "0:"
    INDEX 01 00:56:47
  TRACK 23 AUDIO
    TITLE "20:cjc123_4210"
    INDEX 01 00:57:15
  TRACK 24 AUDIO
    TITLE "0:"
    INDEX 01 01:02:40
  TRACK 25 AUDIO
    TITLE "21:cjc123_4211"
    INDEX 01 01:02:73
  TRACK 26 AUDIO
    TITLE "0:"
    INDEX 01 01:08:05
  TRACK 27 AUDIO
    TITLE "19:cjc123_4212"
    INDEX 01 01:08:66
  TRACK 28 AUDIO
    TITLE "0:"
    INDEX 01 01:14:02
  TRACK 29 AUDIO
    TITLE "20:cjc123_4213"
    INDEX 01 01:14:29
  TRACK 30 AUDIO
    TITLE "0:"
    INDEX 01 01:19:28
  TRACK 31 AUDIO
    TITLE "21:cjc123_4214"
    INDEX 01 01:19:56
  TRACK 32 AUDIO
    TITLE "0:"
    INDEX 01 01:24:65
  TRACK 33 AUDIO
    TITLE "19:cjc123_4215"
    INDEX 01 01:25:45
  TRACK 34 AUDIO
    TITLE "0:"
    INDEX 01 01:29:52
  TRACK 35 AUDIO
    TITLE "20:cjc123_4216"
    INDEX 01 01:30:09
  TRACK 36 AUDIO
    TITLE "0:"
    INDEX 01 01:34:46
  TRACK 37 AUDIO
    TITLE "21:cjc123_4217"
    INDEX 01 01:35:00
  TRACK 38 AUDIO
    TITLE "0:"
    INDEX 01 01:39:04
  TRACK 39 AUDIO
    TITLE "19:cjc123_4218"
    INDEX 01 01:39:70
  TRACK 40 AUDIO
    TITLE "0:"
    INDEX 01 01:44:46
  TRACK 41 AUDIO
    TITLE "20:cjc123_4219"
    INDEX 01 01:45:04
  TRACK 42 AUDIO
    TITLE "0:"
    INDEX 01 01:50:68
  TRACK 43 AUDIO
    TITLE "21:cjc123_4220"
    INDEX 01 01:51:23
  TRACK 44 AUDIO
    TITLE "0:"
    INDEX 01 01:56:00
  TRACK 45 AUDIO
    TITLE "19:cjc123_4221"
    INDEX 01 01:56:55
  TRACK 46 AUDIO
    TITLE "0:"
    INDEX 01 02:01:03
  TRACK 47 AUDIO
    TITLE "20:cjc123_4222"
    INDEX 01 02:01:41
  TRACK 48 AUDIO
    TITLE "0:"
    INDEX 01 02:07:04
  TRACK 49 AUDIO
    TITLE "21:cjc123_4223"
    INDEX 01 02:07:33
  TRACK 50 AUDIO
    TITLE "0:"
    INDEX 01 02:11:55
  TRACK 51 AUDIO
    TITLE "19:cjc123_4224"
    INDEX 01 02:12:36
  TRACK 52 AUDIO
    TITLE "0:"
    INDEX 01 02:18:21
  TRACK 53 AUDIO
    TITLE "20:cjc123_4225"
    INDEX 01 02:18:55
  TRACK 54 AUDIO
    TITLE "0:"
    INDEX 01 02:25:68
  TRACK 55 AUDIO
    TITLE "21:cjc123_4226"
    INDEX 01 02:26:21
  TRACK 56 AUDIO
    TITLE "0:"
    INDEX 01 02:32:04
  TRACK 57 AUDIO
    TITLE "19:cjc123_4227"
    INDEX 01 02:32:55
  TRACK 58 AUDIO
    TITLE "0:"
    INDEX 01 02:38:18
  TRACK 59 AUDIO
    TITLE "20:cjc123_4228"
    INDEX 01 02:38:48
  TRACK 60 AUDIO
    TITLE "0:"
    INDEX 01 02:44:42
  TRACK 61 AUDIO
    TITLE "21:cjc123_4229"
    INDEX 01 02:44:70
  TRACK 62 AUDIO
    TITLE "0:"
    INDEX 01 02:50:31
  TRACK 63 AUDIO
    TITLE "19:cjc123_4230"
    INDEX 01 02:51:05
  TRACK 64 AUDIO
    TITLE "0:"
    INDEX 01 02:56:14
  TRACK 65 AUDIO
    TITLE "20:cjc123_4231"
    INDEX 01 02:56:55
  TRACK 66 AUDIO
    TITLE "0:"
    INDEX 01 03:01:17
  TRACK 67 AUDIO
    TITLE "21:cjc123_4232"
    INDEX 01 03:01:45
  TRACK 68 AUDIO
    TITLE "0:"
    INDEX 01 03:06:52
  TRACK 69 AUDIO
    TITLE "19:cjc123_4233"
    INDEX 01 03:07:34
  TRACK 70 AUDIO
    TITLE "0:"
    INDEX 01 03:11:41
  TRACK 71 AUDIO
    TITLE "20:cjc123_4234"
    INDEX 01 03:11:73
  TRACK 72 AUDIO
    TITLE "0:"
    INDEX 01 03:16:11
  TRACK 73 AUDIO
    TITLE "21:cjc123_4235"
    INDEX 01 03:16:36
  TRACK 74 AUDIO
    TITLE "0:"
    INDEX 01 03:20:44
  TRACK 75 AUDIO
    TITLE "19:cjc123_4236"
    INDEX 01 03:21:20
  TRACK 76 AUDIO
    TITLE "0:"
    INDEX 01 03:26:15
  TRACK 77 AUDIO
    TITLE "20:cjc123_4237"
    INDEX 01 03:26:49
  TRACK 78 AUDIO
    TITLE "0:"
    INDEX 01 03:32:20
  TRACK 79 AUDIO
    TITLE "21:cjc123_4238"
    INDEX 01 03:32:51
  TRACK 80 AUDIO
    TITLE "0:"
    INDEX 01 03:37:46
  TRACK 81 AUDIO
    TITLE "19:cjc123_4239"
    INDEX 01 03:38:18
  TRACK 82 AUDIO
    TITLE "0:"
    INDEX 01 03:44:07
  TRACK 83 AUDIO
    TITLE "20:cjc123_4240"
    INDEX 01 03:44:35
  TRACK 84 AUDIO
    TITLE "0:"
    INDEX 01 03:50:53
  TRACK 85 AUDIO
    TITLE "21:cjc123_4241"
    INDEX 01 03:51:03
  TRACK 86 AUDIO
    TITLE "0:"
    INDEX 01 03:56:67
  TRACK 87 AUDIO
    TITLE "19:cjc123_4242"
    INDEX 01 03:57:37
  TRACK 88 AUDIO
    TITLE "0:"
    INDEX 01 04:00:71
  TRACK 89 AUDIO
    TITLE "20:cjc123_4243"
    INDEX 01 04:01:25
  TRACK 90 AUDIO
    TITLE "0:"
    INDEX 01 04:05:02
  TRACK 91 AUDIO
    TITLE "21:cjc123_4244"
    INDEX 01 04:05:35
  TRACK 92 AUDIO
    TITLE "0:"
    INDEX 01 04:08:71
